<?xml version="1.0" encoding="utf-8"?>
<svg xmlns="http://www.w3.org/2000/svg" height="250" preserveAspectRatio="xMidYMid meet" version="1.0" viewBox="0 0 375 187.499995" width="500" zoomAndPan="magnify">
  <defs>
    <g/>
    <clipPath id="d36f2ed464">
      <path clip-rule="nonzero" d="M 0.5 29 L 374.5 29 L 374.5 102 L 0.5 102 Z M 0.5 29"/>
    </clipPath>
  </defs>
  <g fill="#000000" fill-opacity="1">
    <g transform="translate(24.914632, 145.784794)">
      <g>
        <path d="M 6.671875 0 L 2.9375 0 L 2.9375 -32.6875 L 6.671875 -32.6875 L 6.671875 -18.859375 L 13.546875 -32.6875 L 17.28125 -32.6875 L 10.125 -18.625 L 17.546875 0 L 13.8125 0 L 8.171875 -14.703125 L 6.671875 -11.765625 Z M 6.671875 0"/>
      </g>
    </g>
  </g>
  <g fill="#000000" fill-opacity="1">
    <g transform="translate(42.698228, 145.784794)">
      <g>
        <path d="M 6.671875 -14.796875 L 6.671875 -2.984375 L 14.796875 -2.984375 L 14.796875 0 L 2.9375 0 L 2.9375 -32.6875 L 14.65625 -32.6875 L 14.65625 -29.6875 L 6.671875 -29.6875 L 6.671875 -17.78125 L 13.953125 -17.78125 L 13.953125 -14.796875 Z M 6.671875 -14.796875"/>
      </g>
    </g>
  </g>
  <g fill="#000000" fill-opacity="1">
    <g transform="translate(59.454965, 145.784794)">
      <g>
        <path d="M 0.609375 -29.6875 L 0.609375 -32.6875 L 13.359375 -32.6875 L 13.359375 -29.6875 L 8.828125 -29.6875 L 8.828125 0 L 5.140625 0 L 5.140625 -29.6875 Z M 0.609375 -29.6875"/>
      </g>
    </g>
  </g>
  <g fill="#000000" fill-opacity="1">
    <g transform="translate(73.411115, 145.784794)">
      <g>
        <path d="M 0.609375 -29.6875 L 0.609375 -32.6875 L 13.359375 -32.6875 L 13.359375 -29.6875 L 8.828125 -29.6875 L 8.828125 0 L 5.140625 0 L 5.140625 -29.6875 Z M 0.609375 -29.6875"/>
      </g>
    </g>
  </g>
  <g fill="#000000" fill-opacity="1">
    <g transform="translate(87.367266, 145.784794)">
      <g>
        <path d="M 6.671875 -14.796875 L 6.671875 -2.984375 L 14.796875 -2.984375 L 14.796875 0 L 2.9375 0 L 2.9375 -32.6875 L 14.65625 -32.6875 L 14.65625 -29.6875 L 6.671875 -29.6875 L 6.671875 -17.78125 L 13.953125 -17.78125 L 13.953125 -14.796875 Z M 6.671875 -14.796875"/>
      </g>
    </g>
  </g>
  <g fill="#000000" fill-opacity="1">
    <g transform="translate(104.124003, 145.784794)">
      <g>
        <path d="M 1.953125 0 L 1.953125 -4.296875 L 5.65625 -4.296875 L 5.65625 0 Z M 1.953125 0"/>
      </g>
    </g>
  </g>
  <g fill="#000000" fill-opacity="1">
    <g transform="translate(111.732215, 145.784794)">
      <g>
        <path d="M 6.671875 0 L 2.9375 0 L 2.9375 -32.6875 L 6.671875 -32.6875 L 6.671875 -18.859375 L 13.546875 -32.6875 L 17.28125 -32.6875 L 10.125 -18.625 L 17.546875 0 L 13.8125 0 L 8.171875 -14.703125 L 6.671875 -11.765625 Z M 6.671875 0"/>
      </g>
    </g>
  </g>
  <g fill="#000000" fill-opacity="1">
    <g transform="translate(129.51581, 145.784794)">
      <g>
        <path d="M 13.40625 -32.6875 L 17.09375 -32.6875 L 17.09375 -9.75 C 17.09375 -5.800781 16.460938 -3.070312 15.203125 -1.5625 C 13.941406 -0.0507812 12.15625 0.703125 9.84375 0.703125 C 7.539062 0.703125 5.757812 -0.0507812 4.5 -1.5625 C 3.238281 -3.070312 2.609375 -5.800781 2.609375 -9.75 L 2.609375 -32.6875 L 6.296875 -32.6875 L 6.296875 -9.0625 C 6.296875 -6.539062 6.609375 -4.785156 7.234375 -3.796875 C 7.859375 -2.816406 8.722656 -2.328125 9.828125 -2.328125 C 10.929688 -2.328125 11.800781 -2.816406 12.4375 -3.796875 C 13.082031 -4.785156 13.40625 -6.539062 13.40625 -9.0625 Z M 13.40625 -32.6875"/>
      </g>
    </g>
  </g>
  <g fill="#000000" fill-opacity="1">
    <g transform="translate(149.213142, 145.784794)">
      <g>
        <path d="M 2.9375 0 L 2.9375 -32.6875 L 8.734375 -32.6875 C 11.035156 -32.6875 12.820312 -31.953125 14.09375 -30.484375 C 15.375 -29.023438 16.015625 -26.394531 16.015625 -22.59375 L 16.015625 -22.359375 C 16.015625 -17.628906 14.863281 -14.628906 12.5625 -13.359375 L 16.4375 0 L 12.609375 0 L 8.96875 -12.515625 L 6.671875 -12.515625 L 6.671875 0 Z M 12.328125 -21.890625 L 12.328125 -23.296875 C 12.328125 -25.691406 12.003906 -27.351562 11.359375 -28.28125 C 10.722656 -29.21875 9.847656 -29.6875 8.734375 -29.6875 L 6.671875 -29.6875 L 6.671875 -15.453125 L 8.734375 -15.453125 C 11.128906 -15.453125 12.328125 -17.597656 12.328125 -21.890625 Z M 12.328125 -21.890625"/>
      </g>
    </g>
  </g>
  <g fill="#000000" fill-opacity="1">
    <g transform="translate(167.230126, 145.784794)">
      <g>
        <path d="M 4.484375 -32.6875 L 9.15625 -5.421875 L 13.8125 -32.6875 L 17.546875 -32.6875 L 11.484375 0 L 6.8125 0 L 0.75 -32.6875 Z M 4.484375 -32.6875"/>
      </g>
    </g>
  </g>
  <g fill="#000000" fill-opacity="1">
    <g transform="translate(185.527177, 145.784794)">
      <g>
        <path d="M 6.671875 -14.796875 L 6.671875 -2.984375 L 14.796875 -2.984375 L 14.796875 0 L 2.9375 0 L 2.9375 -32.6875 L 14.65625 -32.6875 L 14.65625 -29.6875 L 6.671875 -29.6875 L 6.671875 -17.78125 L 13.953125 -17.78125 L 13.953125 -14.796875 Z M 6.671875 -14.796875"/>
      </g>
    </g>
  </g>
  <g fill="#000000" fill-opacity="1">
    <g transform="translate(202.283914, 145.784794)">
      <g>
        <path d="M 1.953125 0 L 1.953125 -4.296875 L 5.65625 -4.296875 L 5.65625 0 Z M 1.953125 0"/>
      </g>
    </g>
  </g>
  <g fill="#000000" fill-opacity="1">
    <g transform="translate(209.892126, 145.784794)">
      <g>
        <path d="M 6.671875 0 L 2.9375 0 L 2.9375 -32.6875 L 6.671875 -32.6875 L 6.671875 -18.859375 L 13.546875 -32.6875 L 17.28125 -32.6875 L 10.125 -18.625 L 17.546875 0 L 13.8125 0 L 8.171875 -14.703125 L 6.671875 -11.765625 Z M 6.671875 0"/>
      </g>
    </g>
  </g>
  <g fill="#000000" fill-opacity="1">
    <g transform="translate(227.675722, 145.784794)">
      <g>
        <path d="M 16.90625 -22.921875 L 16.90625 -9.75 C 16.90625 -5.800781 16.273438 -3.070312 15.015625 -1.5625 C 13.753906 -0.0507812 11.945312 0.703125 9.59375 0.703125 C 7.238281 0.703125 5.429688 -0.0507812 4.171875 -1.5625 C 2.910156 -3.070312 2.28125 -5.800781 2.28125 -9.75 L 2.28125 -22.921875 C 2.28125 -26.878906 2.910156 -29.609375 4.171875 -31.109375 C 5.429688 -32.617188 7.238281 -33.375 9.59375 -33.375 C 11.945312 -33.375 13.753906 -32.617188 15.015625 -31.109375 C 16.273438 -29.609375 16.90625 -26.878906 16.90625 -22.921875 Z M 13.21875 -9.0625 L 13.21875 -23.625 C 13.21875 -28.101562 12.019531 -30.34375 9.625 -30.34375 C 8.46875 -30.34375 7.566406 -29.859375 6.921875 -28.890625 C 6.285156 -27.929688 5.96875 -26.175781 5.96875 -23.625 L 5.96875 -9.0625 C 5.96875 -6.507812 6.285156 -4.75 6.921875 -3.78125 C 7.566406 -2.8125 8.46875 -2.328125 9.625 -2.328125 C 12.019531 -2.328125 13.21875 -4.570312 13.21875 -9.0625 Z M 13.21875 -9.0625"/>
      </g>
    </g>
  </g>
  <g fill="#000000" fill-opacity="1">
    <g transform="translate(246.859597, 145.784794)">
      <g>
        <path d="M 6.578125 0 L 2.9375 0 L 2.9375 -32.6875 L 6.8125 -32.6875 L 14.421875 -8.78125 L 14.421875 -32.6875 L 18.0625 -32.6875 L 18.0625 0 L 14.1875 0 L 6.578125 -23.859375 Z M 6.578125 0"/>
      </g>
    </g>
  </g>
  <g fill="#000000" fill-opacity="1">
    <g transform="translate(267.863853, 145.784794)">
      <g>
        <path d="M 0.609375 -29.6875 L 0.609375 -32.6875 L 13.359375 -32.6875 L 13.359375 -29.6875 L 8.828125 -29.6875 L 8.828125 0 L 5.140625 0 L 5.140625 -29.6875 Z M 0.609375 -29.6875"/>
      </g>
    </g>
  </g>
  <g fill="#000000" fill-opacity="1">
    <g transform="translate(281.820003, 145.784794)">
      <g>
        <path d="M 6.671875 -14.796875 L 6.671875 -2.984375 L 14.796875 -2.984375 L 14.796875 0 L 2.9375 0 L 2.9375 -32.6875 L 14.65625 -32.6875 L 14.65625 -29.6875 L 6.671875 -29.6875 L 6.671875 -17.78125 L 13.953125 -17.78125 L 13.953125 -14.796875 Z M 6.671875 -14.796875"/>
      </g>
    </g>
  </g>
  <g fill="#000000" fill-opacity="1">
    <g transform="translate(298.576741, 145.784794)">
      <g>
        <path d="M 4.765625 -32.6875 L 9.15625 -20.96875 L 13.5 -32.6875 L 17.046875 -32.6875 L 10.78125 -16.625 L 17.046875 0 L 13.40625 0 L 8.828125 -12.09375 L 4.296875 0 L 0.75 0 L 7.140625 -16.578125 L 1.125 -32.6875 Z M 4.765625 -32.6875"/>
      </g>
    </g>
  </g>
  <g fill="#000000" fill-opacity="1">
    <g transform="translate(316.360336, 145.784794)">
      <g>
        <path d="M 0.609375 -29.6875 L 0.609375 -32.6875 L 13.359375 -32.6875 L 13.359375 -29.6875 L 8.828125 -29.6875 L 8.828125 0 L 5.140625 0 L 5.140625 -29.6875 Z M 0.609375 -29.6875"/>
      </g>
    </g>
  </g>
  <g clip-path="url(#d36f2ed464)">
    <path d="M 56.777344 67.597656 C 49.445312 72.402344 42.808594 76.640625 41.332031 76.695312 C 34.898438 76.921875 33.304688 67.300781 27.378906 72.996094 C 21.636719 78.519531 8.085938 87.828125 0.5 90.238281 L 1.269531 89.605469 C 10.453125 82.917969 17.023438 80.574219 25.75 71.613281 C 32.859375 64.3125 35.992188 73.539062 40.898438 74.046875 C 42.214844 74.183594 59.425781 61.714844 69.695312 55.03125 C 74.570312 51.859375 78.5 50.359375 81.941406 50.425781 C 83.140625 50.40625 84.289062 50.636719 85.382812 51.058594 C 89.832031 52.671875 93.617188 57.332031 98.003906 64.746094 C 102.457031 71.964844 100.65625 70.464844 114.390625 71.597656 C 119.945312 72.058594 125.5625 77.449219 130.933594 81.917969 C 134.257812 84.578125 137.484375 86.886719 140.484375 87.507812 C 145.351562 88.511719 156.167969 77.410156 160.527344 74.367188 C 165.519531 70.878906 170.667969 79.238281 174.488281 80.117188 C 176.265625 80.523438 186.445312 70.140625 188.703125 68.023438 C 193.71875 63.335938 199.480469 57.214844 204.355469 52.933594 C 215.6875 42.988281 220.179688 58.742188 229.046875 58.609375 C 230.941406 58.578125 248.757812 44.199219 251.625 42.214844 C 256.050781 39.148438 259.125 36.410156 262.78125 36.933594 C 265.105469 36.894531 266.316406 38.203125 267.410156 39.183594 C 268.386719 39.933594 269.273438 40.203125 270.113281 40.128906 C 270.675781 39.949219 271.328125 39.546875 272.128906 38.816406 C 273.765625 37.324219 275.109375 35.957031 276.269531 34.757812 C 277.316406 33.492188 278.417969 32.261719 279.644531 31.40625 C 283.125 28.390625 285.386719 29.066406 292.988281 36.667969 C 307.386719 51.058594 320.839844 64.753906 336.273438 78.21875 C 349.148438 89.453125 358.148438 96.304688 374.5 101.613281 C 363.847656 103.164062 339.726562 84.386719 332.234375 78.058594 C 317.550781 65.65625 303.808594 52.953125 290.484375 39.117188 C 281.035156 29.300781 283.675781 32.757812 274.09375 41.078125 C 270.558594 44.148438 268.546875 43.394531 266.738281 42.105469 C 266.359375 41.886719 265.972656 41.628906 265.574219 41.320312 C 263.75 39.910156 262.265625 39.5625 260.8125 39.886719 C 260.523438 39.972656 260.222656 40.09375 259.902344 40.25 C 259.066406 40.660156 258.015625 41.28125 256.820312 42.054688 C 255.78125 42.820312 254.644531 43.714844 253.332031 44.644531 C 249.726562 47.195312 232.929688 61.117188 230.222656 61.707031 C 221.613281 63.570312 214.851562 49.574219 208.628906 53.925781 C 205.136719 56.363281 195.167969 66.960938 191.183594 70.679688 C 188.277344 73.390625 178.207031 83.652344 175.058594 83.640625 C 170.101562 83.628906 164.609375 75.617188 162.53125 77.039062 C 156.644531 81.074219 146.792969 92.039062 139.816406 90.546875 C 136.371094 89.8125 132.75 87.214844 129.171875 84.335938 C 123.777344 80.148438 118.476562 75.324219 114.132812 75.070312 C 104.308594 74.5 100.414062 76.519531 95.242188 67.136719 C 87.859375 53.75 84.121094 50.625 73.433594 56.847656 C 68.847656 59.722656 62.609375 63.875 56.777344 67.597656 Z M 56.777344 67.597656" fill="#1b5376" fill-opacity="1" fill-rule="evenodd"/>
  </g>
</svg>